<svg width="273" height="65" viewBox="0 0 273 65" fill="none" xmlns="http://www.w3.org/2000/svg">
<path d="M89.352 46.408H92.856V18.088H89.352V15.496H114.984V23.944H110.616V18.328H98.568V30.952H106.728V27.544H109.896V37.192H106.728V33.784H98.568V46.408H103.032V49H89.352V46.408ZM124.173 19.384C123.149 19.384 122.349 19.096 121.773 18.52C121.197 17.912 120.909 17.144 120.909 16.216V15.928C120.909 15 121.197 14.248 121.773 13.672C122.349 13.064 123.149 12.76 124.173 12.76C125.197 12.76 125.997 13.064 126.573 13.672C127.149 14.248 127.437 15 127.437 15.928V16.216C127.437 17.144 127.149 17.912 126.573 18.52C125.997 19.096 125.197 19.384 124.173 19.384ZM118.221 46.408H121.485V27.88L118.221 27.256V25.144L126.861 23.464V46.408H130.125V49H118.221V46.408ZM141.417 49.384C139.593 49.384 138.313 49 137.577 48.232C136.841 47.464 136.473 46.248 136.473 44.584V26.824H133.209V24.04H134.025C135.209 24.04 136.025 23.832 136.473 23.416C136.921 23 137.289 22.392 137.577 21.592L139.065 17.368H141.849V24.04H147.849V26.824H141.849V46.264H147.849V48.376C147.305 48.632 146.425 48.856 145.209 49.048C144.025 49.272 142.761 49.384 141.417 49.384ZM151.321 46.408H154.825V18.088H151.321V15.496H176.953V23.944H172.585V18.328H160.537V30.952H168.697V27.544H171.865V37.192H168.697V33.784H160.537V46.408H165.001V49H151.321V46.408ZM190.916 46.744C192.932 46.744 194.404 46.12 195.332 44.872C196.292 43.624 196.772 41.96 196.772 39.88V33.16C196.772 31.08 196.292 29.416 195.332 28.168C194.404 26.92 192.932 26.296 190.916 26.296C188.9 26.296 187.412 26.92 186.452 28.168C185.524 29.416 185.06 31.08 185.06 33.16V39.88C185.06 41.96 185.524 43.624 186.452 44.872C187.412 46.12 188.9 46.744 190.916 46.744ZM190.916 49.576C189.156 49.576 187.556 49.272 186.116 48.664C184.676 48.056 183.444 47.192 182.42 46.072C181.396 44.952 180.596 43.592 180.02 41.992C179.476 40.36 179.204 38.536 179.204 36.52C179.204 34.504 179.476 32.696 180.02 31.096C180.596 29.464 181.396 28.088 182.42 26.968C183.444 25.848 184.676 24.984 186.116 24.376C187.556 23.768 189.156 23.464 190.916 23.464C192.676 23.464 194.276 23.768 195.716 24.376C197.156 24.984 198.388 25.848 199.412 26.968C200.436 28.088 201.22 29.464 201.764 31.096C202.34 32.696 202.628 34.504 202.628 36.52C202.628 38.536 202.34 40.36 201.764 41.992C201.22 43.592 200.436 44.952 199.412 46.072C198.388 47.192 197.156 48.056 195.716 48.664C194.276 49.272 192.676 49.576 190.916 49.576ZM206.768 46.408H210.032V27.88L206.768 27.256V25.144L215.264 23.464V27.928H215.504C215.728 27.352 216 26.808 216.32 26.296C216.672 25.752 217.088 25.272 217.568 24.856C218.08 24.44 218.656 24.104 219.296 23.848C219.968 23.592 220.72 23.464 221.552 23.464C223.024 23.464 224.192 23.832 225.056 24.568C225.952 25.304 226.4 26.36 226.4 27.736C226.4 28.824 226.112 29.688 225.536 30.328C224.992 30.936 224.24 31.24 223.28 31.24C222.288 31.24 221.504 30.984 220.928 30.472C220.384 29.928 220.112 29.256 220.112 28.456C220.112 27.912 220.224 27.464 220.448 27.112C220.672 26.728 220.944 26.504 221.264 26.44V26.296C221.168 26.264 221.056 26.248 220.928 26.248C220.8 26.216 220.608 26.2 220.352 26.2C219.744 26.2 219.136 26.36 218.528 26.68C217.952 27 217.424 27.416 216.944 27.928C216.496 28.408 216.128 28.968 215.84 29.608C215.552 30.216 215.408 30.824 215.408 31.432V46.408H219.632V49H206.768V46.408ZM229.034 46.408H232.298V27.88L229.034 27.256V25.144L237.53 23.464V27.928H237.77C237.962 27.384 238.25 26.84 238.634 26.296C239.018 25.752 239.498 25.272 240.074 24.856C240.65 24.44 241.322 24.104 242.09 23.848C242.858 23.592 243.738 23.464 244.73 23.464C246.874 23.464 248.554 23.864 249.77 24.664C251.018 25.432 251.882 26.632 252.362 28.264H252.506C252.762 27.688 253.098 27.112 253.514 26.536C253.962 25.96 254.49 25.448 255.098 25C255.706 24.52 256.41 24.152 257.21 23.896C258.01 23.608 258.938 23.464 259.994 23.464C262.97 23.464 265.082 24.248 266.33 25.816C267.578 27.352 268.202 29.672 268.202 32.776V46.408H271.466V49H259.754V46.408H262.826V33.064C262.826 30.984 262.426 29.464 261.626 28.504C260.858 27.544 259.658 27.064 258.026 27.064C257.386 27.064 256.762 27.16 256.154 27.352C255.546 27.512 255.002 27.784 254.522 28.168C254.042 28.52 253.658 28.984 253.37 29.56C253.082 30.104 252.938 30.76 252.938 31.528V46.408H256.01V49H244.49V46.408H247.562V33.064C247.562 30.984 247.162 29.464 246.362 28.504C245.594 27.544 244.394 27.064 242.762 27.064C242.122 27.064 241.498 27.16 240.89 27.352C240.282 27.512 239.738 27.784 239.258 28.168C238.778 28.52 238.394 28.984 238.106 29.56C237.818 30.104 237.674 30.76 237.674 31.528V46.408H240.746V49H229.034V46.408Z" fill="white"/>
<rect x="3.91414" width="37.6563" height="38.8338" transform="matrix(0.782828 -0.622238 0.782828 0.622238 1.14301 28.9775)" stroke="#DE4922" stroke-width="5"/>
<rect x="3.91414" width="37.6563" height="38.8338" transform="matrix(0.782828 -0.622238 0.782828 0.622238 0.850041 40.1601)" stroke="#DE4922" stroke-width="5"/>
</svg>
